<?xml version="1.0" standalone="no"?>
<!DOCTYPE svg PUBLIC "-//W3C//DTD SVG 20010904//EN"
 "http://www.w3.org/TR/2001/REC-SVG-20010904/DTD/svg10.dtd">
<svg version="1.0" xmlns="http://www.w3.org/2000/svg"
 width="208.000000pt" height="208.000000pt" viewBox="0 0 208.000000 208.000000"
 preserveAspectRatio="xMidYMid meet">
<metadata>
Created by potrace 1.11, written by Peter Selinger 2001-2013
</metadata>
<g transform="translate(0.000000,208.000000) scale(0.100000,-0.100000)"
fill="#000000" stroke="none">
<path d="M656 1523 c-4 -4 -50 -6 -104 -5 -82 2 -102 -1 -130 -18 -35 -22 -52
-54 -52 -101 0 -17 -7 -44 -16 -61 -30 -58 -34 -87 -18 -133 9 -27 11 -52 6
-67 -4 -12 -7 -30 -6 -38 1 -8 2 -26 3 -39 0 -13 17 -38 36 -57 19 -18 35 -39
35 -47 0 -9 14 -27 31 -41 23 -20 42 -26 77 -26 30 0 65 -9 96 -25 76 -38 133
-31 191 25 17 16 43 34 60 40 27 10 32 9 52 -15 18 -21 23 -38 23 -84 0 -64
-19 -102 -88 -174 -30 -31 -35 -41 -25 -55 17 -26 59 -17 114 25 59 45 85 83
109 161 l17 57 13 -45 c13 -48 8 -83 -26 -171 -22 -56 -15 -79 25 -79 56 0
123 121 124 225 l1 65 24 -47 c29 -57 53 -86 106 -124 44 -33 67 -36 90 -13
24 23 20 40 -19 83 -34 37 -81 128 -72 137 2 3 19 -18 37 -46 71 -110 233
-203 277 -159 19 19 3 46 -48 79 -56 36 -59 46 -10 29 60 -21 171 9 171 46 0
20 -16 27 -69 31 -25 2 -65 11 -88 19 -47 18 -119 91 -129 131 -7 27 0 36 74
95 6 5 12 23 12 40 0 59 -45 115 -99 125 -23 4 -53 23 -82 50 -27 25 -65 48
-90 55 -24 7 -66 28 -93 47 -60 44 -152 78 -263 97 -88 15 -264 20 -277 8z
m-144 -95 c-12 -24 -17 -59 -17 -128 0 -86 3 -100 29 -148 30 -54 100 -111
140 -113 80 -5 128 -17 156 -39 14 -11 20 -20 13 -20 -6 0 -33 -18 -58 -40
-56 -48 -89 -51 -153 -14 -34 20 -51 24 -79 19 -44 -8 -83 15 -83 50 0 17 -8
29 -24 36 -38 18 -52 53 -37 95 11 29 10 41 -5 80 -17 43 -16 46 4 92 11 26
24 68 27 94 7 53 22 67 72 68 l31 0 -16 -32z m955 -205 c-10 -3 -17 -12 -15
-21 4 -20 48 -29 48 -10 1 8 6 6 15 -6 17 -22 19 -44 7 -64 -13 -20 -41 -3
-62 39 -26 51 -26 69 3 68 17 -1 18 -2 4 -6z m-395 -14 c-33 -13 -27 -53 9
-57 28 -3 46 21 32 42 -5 7 0 3 10 -7 41 -45 1 -127 -63 -127 -19 0 -40 9 -55
25 -51 50 -15 136 57 134 31 0 31 -1 10 -10z"/>
</g>
</svg>
